<svg width="63" height="48" viewBox="0 0 63 48" fill="none" xmlns="http://www.w3.org/2000/svg">
    <rect width="62.8244" height="47.3031" rx="23.6516" fill="#111111"/>
    <path d="M52.8475 26.5024C52.8475 25.557 53.6576 24.7602 54.6953 24.7602C55.733 24.7602 56.5431 25.557 56.5431 26.5024V28.1918C56.5431 29.1372 55.733 29.934 54.6953 29.934C53.6576 29.934 52.8475 29.1372 52.8475 28.1918V26.5024Z" stroke="white" stroke-width="0.739111"/>
    <path d="M6.2835 26.5024C6.2835 25.557 7.09358 24.7602 8.13127 24.7602C9.16897 24.7602 9.97905 25.557 9.97905 26.5024V28.1918C9.97905 29.1372 9.16897 29.934 8.13127 29.934C7.09358 29.934 6.2835 29.1372 6.2835 28.1918V26.5024Z" stroke="white" stroke-width="0.739111"/>
    <rect x="7.39215" y="16.2605" width="48.0422" height="22.1733" rx="10.3476" fill="white"/>
    <path d="M31.0437 7.02148C31.0437 6.81738 30.8783 6.65193 30.6742 6.65193C30.4701 6.65193 30.3046 6.81738 30.3046 7.02148H31.0437ZM30.3046 7.02148V16.2604H31.0437V7.02148H30.3046Z" fill="white"/>
    <path d="M35.4784 7.02139L33.7285 7.60468C33.4251 7.70582 33.097 7.70582 32.7936 7.60468L31.0437 7.02139" stroke="white" stroke-width="0.739111" stroke-linecap="round"/>
    <path d="M42.1304 25.8689C42.1304 23.8279 43.7849 22.1733 45.8259 22.1733C47.8669 22.1733 49.5215 23.8279 49.5215 25.8689V28.8253C49.5215 30.8663 47.8669 32.5209 45.8259 32.5209C43.7849 32.5209 42.1304 30.8663 42.1304 28.8253V25.8689Z" fill="white"/>
    <path d="M42.8695 26.8192C42.8695 25.0698 44.1932 23.6516 45.826 23.6516C47.4588 23.6516 48.7824 25.0698 48.7824 26.8192V29.3533C48.7824 31.1028 47.4588 32.5209 45.826 32.5209C44.1932 32.5209 42.8695 31.1028 42.8695 29.3533V26.8192Z" fill="#111111"/>
    <rect x="13.3051" y="22.1733" width="7.39111" height="10.3476" rx="3.69556" fill="white"/>
    <rect x="14.0442" y="23.6516" width="5.91289" height="8.86933" rx="2.95644" fill="#111111"/>
    <path d="M28.0873 33.26C29.1959 33.6296 32.2263 34.1469 35.4784 33.26" stroke="#111111" stroke-width="0.739111" stroke-linecap="round"/>
    <circle cx="30.3046" cy="6.65195" r="0.739111" fill="white"/>
    <path d="M31.4133 25.8689V30.3036" stroke="#111111" stroke-width="0.739111" stroke-linecap="round"/>
</svg>
