<svg width="37" height="12" viewBox="0 0 37 12" fill="none" xmlns="http://www.w3.org/2000/svg">
    <path d="M1 5.25C0.585786 5.25 0.25 5.58579 0.25 6C0.25 6.41421 0.585786 6.75 1 6.75L1 5.25ZM36.5303 6.53033C36.8232 6.23744 36.8232 5.76257 36.5303 5.46967L31.7574 0.696701C31.4645 0.403808 30.9896 0.403808 30.6967 0.696701C30.4038 0.989594 30.4038 1.46447 30.6967 1.75736L34.9393 6L30.6967 10.2426C30.4038 10.5355 30.4038 11.0104 30.6967 11.3033C30.9896 11.5962 31.4645 11.5962 31.7574 11.3033L36.5303 6.53033ZM1 6.75L18.5 6.75L18.5 5.25L1 5.25L1 6.75ZM18.5 6.75L27.25 6.75L27.25 5.25L18.5 5.25L18.5 6.75ZM27.25 6.75L31.625 6.75L31.625 5.25L27.25 5.25L27.25 6.75ZM31.625 6.75L36 6.75L36 5.25L31.625 5.25L31.625 6.75Z" fill="#111111"/>
</svg>
