<svg width="23" height="15" viewBox="0 0 23 15" fill="none" xmlns="http://www.w3.org/2000/svg">
    <path d="M11.2388 13.9286C7.33217 13.9286 3.89297 11.3329 1.89047 9.42216C0.703175 8.28924 0.703175 6.56798 1.89048 5.43506C2.84056 4.52848 3.84417 3.71511 5.33756 2.85056C5.98464 2.47596 8.16717 0.928467 11.2388 0.928467C15.1454 0.928467 18.5846 3.52428 20.5871 5.43506C21.6975 6.49452 21.7694 8.0685 20.8031 9.19469C20.6671 9.35316 20.524 9.50689 20.3933 9.66973C18.882 11.5526 17.5133 12.1671 16.9522 12.6101C15.3773 13.4695 13.1515 13.9286 11.2388 13.9286Z" stroke="#7D848D" stroke-width="1.5" stroke-linecap="round"/>
    <path d="M14 7.5C14 8.88071 12.6569 10 11 10C9.34315 10 8 8.88071 8 7.5C8 6.11929 9.34315 5 11 5C12.6569 5 14 6.11929 14 7.5Z" stroke="#7D848D" stroke-width="1.5"/>
</svg>
