<svg width="40" height="40" viewBox="0 0 40 40" fill="none" xmlns="http://www.w3.org/2000/svg">
    <rect x="0.5" y="0.5" width="39" height="39" rx="19.5" fill="#E1EEEF"/>
    <rect x="0.5" y="0.5" width="39" height="39" rx="19.5" stroke="#111111"/>
    <path d="M17.6635 25H22.3365M20 11V12M26.364 13.636L25.6569 14.3431M29.0001 19.9999H28.0001M12.0001 19.9999H11.0001M14.3431 14.3431L13.636 13.636M16.4645 23.5356C14.5118 21.5829 14.5118 18.4171 16.4645 16.4645C18.4171 14.5119 21.5829 14.5119 23.5355 16.4645C25.4882 18.4171 25.4882 21.5829 23.5355 23.5356L22.9884 24.0827C22.3556 24.7155 22 25.5739 22 26.469V27C22 28.1046 21.1046 29 20 29C18.8954 29 18 28.1046 18 27V26.469C18 25.5739 17.6444 24.7155 17.0116 24.0827L16.4645 23.5356Z" stroke="#101010" stroke-width="2" stroke-linecap="round" stroke-linejoin="round"/>
</svg>
