<svg width="40" height="40" viewBox="0 0 40 40" fill="none" xmlns="http://www.w3.org/2000/svg">
    <rect x="0.5" y="0.5" width="39" height="39" rx="19.5" stroke="#111111"/>
    <path d="M21 12C21 11.4477 20.5523 11 20 11C19.4477 11 19 11.4477 19 12H21ZM19 13C19 13.5523 19.4477 14 20 14C20.5523 14 21 13.5523 21 13H19ZM26 23C25.4477 23 25 23.4477 25 24C25 24.5523 25.4477 25 26 25V23ZM28 25C28.5523 25 29 24.5523 29 24C29 23.4477 28.5523 23 28 23V25ZM20 24V23C19.4477 23 19 23.4477 19 24H20ZM22 25C22.5523 25 23 24.5523 23 24C23 23.4477 22.5523 23 22 23V25ZM19 28C19 28.5523 19.4477 29 20 29C20.5523 29 21 28.5523 21 28H19ZM21 17C21 16.4477 20.5523 16 20 16C19.4477 16 19 16.4477 19 17H21ZM20 20H19C19 20.5523 19.4477 21 20 21V20ZM24 27C23.4477 27 23 27.4477 23 28C23 28.5523 23.4477 29 24 29V27ZM28 29C28.5523 29 29 28.5523 29 28C29 27.4477 28.5523 27 28 27V29ZM12 19C11.4477 19 11 19.4477 11 20C11 20.5523 11.4477 21 12 21V19ZM16 21C16.5523 21 17 20.5523 17 20C17 19.4477 16.5523 19 16 19V21ZM20.01 21C20.5623 21 21.01 20.5523 21.01 20C21.01 19.4477 20.5623 19 20.01 19V21ZM24.01 21C24.5623 21 25.01 20.5523 25.01 20C25.01 19.4477 24.5623 19 24.01 19V21ZM28 19C27.4477 19 27 19.4477 27 20C27 20.5523 27.4477 21 28 21V19ZM28.01 21C28.5623 21 29.01 20.5523 29.01 20C29.01 19.4477 28.5623 19 28.01 19V21ZM13 13H15V11H13V13ZM15 13V15H17V13H15ZM15 15H13V17H15V15ZM13 15V13H11V15H13ZM13 15H11C11 16.1046 11.8954 17 13 17V15ZM15 15V17C16.1046 17 17 16.1046 17 15H15ZM15 13H17C17 11.8954 16.1046 11 15 11V13ZM13 11C11.8954 11 11 11.8954 11 13H13V11ZM25 13H27V11H25V13ZM27 13V15H29V13H27ZM27 15H25V17H27V15ZM25 15V13H23V15H25ZM25 15H23C23 16.1046 23.8954 17 25 17V15ZM27 15V17C28.1046 17 29 16.1046 29 15H27ZM27 13H29C29 11.8954 28.1046 11 27 11V13ZM25 11C23.8954 11 23 11.8954 23 13H25V11ZM13 25H15V23H13V25ZM15 25V27H17V25H15ZM15 27H13V29H15V27ZM13 27V25H11V27H13ZM13 27H11C11 28.1046 11.8954 29 13 29V27ZM15 27V29C16.1046 29 17 28.1046 17 27H15ZM15 25H17C17 23.8954 16.1046 23 15 23V25ZM13 23C11.8954 23 11 23.8954 11 25H13V23ZM19 12V13H21V12H19ZM26 25H28V23H26V25ZM20 25H22V23H20V25ZM19 24V28H21V24H19ZM19 17V20H21V17H19ZM24 29H28V27H24V29ZM12 21H16V19H12V21ZM20 21H20.01V19H20V21ZM28 21H28.01V19H28V21ZM20 21H24.01V19H20V21Z" fill="#101010"/>
</svg>
