<svg width="23" height="18" viewBox="0 0 23 18" fill="none" xmlns="http://www.w3.org/2000/svg">
    <path d="M3.14053 1.57153L19.5226 16.4287M13.3793 11.0765C12.8359 11.5176 12.1183 11.7858 11.3316 11.7858C9.63516 11.7858 8.25994 10.5386 8.25994 9.0001C8.25994 8.28663 8.55569 7.63581 9.04207 7.14296M19.121 12.3501C19.706 11.8882 20.2293 11.4236 20.6799 10.9937C21.8672 9.86073 21.8672 8.13948 20.6799 7.00655C18.6774 5.09577 15.2382 2.5001 11.3316 2.5001C10.4189 2.5001 9.53177 2.64177 8.68249 2.88327M5.70024 4.17468C4.20684 5.03923 2.93334 6.09997 1.98325 7.00655C0.795949 8.13948 0.795948 9.86073 1.98325 10.9937C3.98574 12.9044 7.42495 15.5001 11.3316 15.5001C13.2443 15.5001 15.0449 14.8779 16.6198 14.0185" stroke="#7D848D" stroke-width="1.5" stroke-linecap="round"/>
</svg>
